<mxfile host="Electron" modified="2024-03-29T11:40:11.539Z" agent="Mozilla/5.0 (Macintosh; Intel Mac OS X 10_15_7) AppleWebKit/537.36 (KHTML, like Gecko) draw.io/22.1.2 Chrome/114.0.5735.289 Electron/25.9.4 Safari/537.36" etag="HAwqeHMNyGq6px_KvHq1" version="22.1.2" type="device">
  <diagram name="Seite-1" id="24qjCoxR99EALFjSsxNB">
    <mxGraphModel dx="1114" dy="848" grid="1" gridSize="10" guides="1" tooltips="1" connect="1" arrows="1" fold="1" page="1" pageScale="1" pageWidth="2336" pageHeight="1654" math="0" shadow="0">
      <root>
        <mxCell id="0" />
        <mxCell id="1" parent="0" />
        <mxCell id="v77YOFpZb4To5ziVE_u_-2" value="" style="ellipse;whiteSpace=wrap;html=1;aspect=fixed;fillColor=#f5f5f5;fontColor=#333333;strokeColor=#666666;" vertex="1" parent="1">
          <mxGeometry x="272" y="40" width="480" height="480" as="geometry" />
        </mxCell>
        <mxCell id="P8fl0U47V1fSoaWPIP8A-10" style="edgeStyle=orthogonalEdgeStyle;rounded=0;orthogonalLoop=1;jettySize=auto;html=1;entryX=0.5;entryY=0;entryDx=0;entryDy=0;strokeWidth=6;" parent="1" source="P8fl0U47V1fSoaWPIP8A-2" target="P8fl0U47V1fSoaWPIP8A-4" edge="1">
          <mxGeometry relative="1" as="geometry" />
        </mxCell>
        <mxCell id="P8fl0U47V1fSoaWPIP8A-11" style="edgeStyle=orthogonalEdgeStyle;rounded=0;orthogonalLoop=1;jettySize=auto;html=1;strokeWidth=6;" parent="1" source="P8fl0U47V1fSoaWPIP8A-2" target="P8fl0U47V1fSoaWPIP8A-5" edge="1">
          <mxGeometry relative="1" as="geometry" />
        </mxCell>
        <mxCell id="P8fl0U47V1fSoaWPIP8A-12" style="edgeStyle=orthogonalEdgeStyle;rounded=0;orthogonalLoop=1;jettySize=auto;html=1;exitX=0.5;exitY=1;exitDx=0;exitDy=0;entryX=0.5;entryY=0;entryDx=0;entryDy=0;strokeWidth=6;" parent="1" source="P8fl0U47V1fSoaWPIP8A-3" target="P8fl0U47V1fSoaWPIP8A-6" edge="1">
          <mxGeometry relative="1" as="geometry" />
        </mxCell>
        <mxCell id="P8fl0U47V1fSoaWPIP8A-13" style="edgeStyle=orthogonalEdgeStyle;rounded=0;orthogonalLoop=1;jettySize=auto;html=1;exitX=0.5;exitY=1;exitDx=0;exitDy=0;strokeWidth=6;" parent="1" source="P8fl0U47V1fSoaWPIP8A-5" target="P8fl0U47V1fSoaWPIP8A-7" edge="1">
          <mxGeometry relative="1" as="geometry" />
        </mxCell>
        <mxCell id="P8fl0U47V1fSoaWPIP8A-14" style="edgeStyle=orthogonalEdgeStyle;rounded=0;orthogonalLoop=1;jettySize=auto;html=1;exitX=0.5;exitY=1;exitDx=0;exitDy=0;strokeWidth=6;" parent="1" source="P8fl0U47V1fSoaWPIP8A-6" target="P8fl0U47V1fSoaWPIP8A-9" edge="1">
          <mxGeometry relative="1" as="geometry" />
        </mxCell>
        <mxCell id="P8fl0U47V1fSoaWPIP8A-35" value="" style="group" parent="1" vertex="1" connectable="0">
          <mxGeometry x="320" y="230" width="80" height="80" as="geometry" />
        </mxCell>
        <mxCell id="P8fl0U47V1fSoaWPIP8A-4" value="" style="whiteSpace=wrap;html=1;aspect=fixed;fillColor=#1E8193;strokeWidth=9;" parent="P8fl0U47V1fSoaWPIP8A-35" vertex="1">
          <mxGeometry width="80" height="80" as="geometry" />
        </mxCell>
        <mxCell id="P8fl0U47V1fSoaWPIP8A-29" value="" style="line;strokeWidth=6;html=1;perimeter=backbonePerimeter;points=[];outlineConnect=0;" parent="P8fl0U47V1fSoaWPIP8A-35" vertex="1">
          <mxGeometry x="14" y="22.5" width="52" height="10" as="geometry" />
        </mxCell>
        <mxCell id="P8fl0U47V1fSoaWPIP8A-30" value="" style="line;strokeWidth=6;html=1;perimeter=backbonePerimeter;points=[];outlineConnect=0;" parent="P8fl0U47V1fSoaWPIP8A-35" vertex="1">
          <mxGeometry x="14" y="47.5" width="52" height="10" as="geometry" />
        </mxCell>
        <mxCell id="P8fl0U47V1fSoaWPIP8A-36" value="" style="group" parent="1" vertex="1" connectable="0">
          <mxGeometry x="450" y="230" width="80" height="80" as="geometry" />
        </mxCell>
        <mxCell id="P8fl0U47V1fSoaWPIP8A-5" value="" style="whiteSpace=wrap;html=1;aspect=fixed;fillColor=#1E8193;strokeWidth=9;" parent="P8fl0U47V1fSoaWPIP8A-36" vertex="1">
          <mxGeometry width="80" height="80" as="geometry" />
        </mxCell>
        <mxCell id="P8fl0U47V1fSoaWPIP8A-27" value="" style="line;strokeWidth=6;html=1;perimeter=backbonePerimeter;points=[];outlineConnect=0;" parent="P8fl0U47V1fSoaWPIP8A-36" vertex="1">
          <mxGeometry x="14" y="22.5" width="52" height="10" as="geometry" />
        </mxCell>
        <mxCell id="P8fl0U47V1fSoaWPIP8A-28" value="" style="line;strokeWidth=6;html=1;perimeter=backbonePerimeter;points=[];outlineConnect=0;" parent="P8fl0U47V1fSoaWPIP8A-36" vertex="1">
          <mxGeometry x="14" y="47.5" width="52" height="10" as="geometry" />
        </mxCell>
        <mxCell id="P8fl0U47V1fSoaWPIP8A-37" value="" style="group" parent="1" vertex="1" connectable="0">
          <mxGeometry x="590" y="230" width="80" height="80" as="geometry" />
        </mxCell>
        <mxCell id="P8fl0U47V1fSoaWPIP8A-6" value="" style="whiteSpace=wrap;html=1;aspect=fixed;fillColor=#1E8193;strokeWidth=9;" parent="P8fl0U47V1fSoaWPIP8A-37" vertex="1">
          <mxGeometry width="80" height="80" as="geometry" />
        </mxCell>
        <mxCell id="P8fl0U47V1fSoaWPIP8A-25" value="" style="line;strokeWidth=6;html=1;perimeter=backbonePerimeter;points=[];outlineConnect=0;" parent="P8fl0U47V1fSoaWPIP8A-37" vertex="1">
          <mxGeometry x="14" y="22.5" width="52" height="10" as="geometry" />
        </mxCell>
        <mxCell id="P8fl0U47V1fSoaWPIP8A-26" value="" style="line;strokeWidth=6;html=1;perimeter=backbonePerimeter;points=[];outlineConnect=0;" parent="P8fl0U47V1fSoaWPIP8A-37" vertex="1">
          <mxGeometry x="14" y="47.5" width="52" height="10" as="geometry" />
        </mxCell>
        <mxCell id="P8fl0U47V1fSoaWPIP8A-38" value="" style="group" parent="1" vertex="1" connectable="0">
          <mxGeometry x="542" y="90" width="80" height="80" as="geometry" />
        </mxCell>
        <mxCell id="P8fl0U47V1fSoaWPIP8A-3" value="" style="whiteSpace=wrap;html=1;aspect=fixed;fillColor=#B30000;strokeWidth=9;" parent="P8fl0U47V1fSoaWPIP8A-38" vertex="1">
          <mxGeometry width="80" height="80" as="geometry" />
        </mxCell>
        <mxCell id="P8fl0U47V1fSoaWPIP8A-23" value="" style="line;strokeWidth=6;html=1;perimeter=backbonePerimeter;points=[];outlineConnect=0;" parent="P8fl0U47V1fSoaWPIP8A-38" vertex="1">
          <mxGeometry x="15" y="22.5" width="50" height="10" as="geometry" />
        </mxCell>
        <mxCell id="P8fl0U47V1fSoaWPIP8A-24" value="" style="line;strokeWidth=6;html=1;perimeter=backbonePerimeter;points=[];outlineConnect=0;" parent="P8fl0U47V1fSoaWPIP8A-38" vertex="1">
          <mxGeometry x="15" y="47.5" width="50" height="10" as="geometry" />
        </mxCell>
        <mxCell id="P8fl0U47V1fSoaWPIP8A-39" value="" style="group" parent="1" vertex="1" connectable="0">
          <mxGeometry x="390" y="90" width="80" height="80" as="geometry" />
        </mxCell>
        <mxCell id="P8fl0U47V1fSoaWPIP8A-2" value="" style="whiteSpace=wrap;html=1;aspect=fixed;fillColor=#B30000;strokeWidth=9;" parent="P8fl0U47V1fSoaWPIP8A-39" vertex="1">
          <mxGeometry width="80" height="80" as="geometry" />
        </mxCell>
        <mxCell id="P8fl0U47V1fSoaWPIP8A-20" value="" style="line;strokeWidth=6;html=1;perimeter=backbonePerimeter;points=[];outlineConnect=0;" parent="P8fl0U47V1fSoaWPIP8A-39" vertex="1">
          <mxGeometry x="15" y="24" width="50" height="10" as="geometry" />
        </mxCell>
        <mxCell id="P8fl0U47V1fSoaWPIP8A-22" value="" style="line;strokeWidth=6;html=1;perimeter=backbonePerimeter;points=[];outlineConnect=0;" parent="P8fl0U47V1fSoaWPIP8A-39" vertex="1">
          <mxGeometry x="15" y="49" width="50" height="10" as="geometry" />
        </mxCell>
        <mxCell id="P8fl0U47V1fSoaWPIP8A-40" value="" style="group" parent="1" vertex="1" connectable="0">
          <mxGeometry x="450" y="401" width="80" height="80" as="geometry" />
        </mxCell>
        <mxCell id="P8fl0U47V1fSoaWPIP8A-7" value="" style="whiteSpace=wrap;html=1;aspect=fixed;fillColor=#CCCC00;strokeWidth=9;" parent="P8fl0U47V1fSoaWPIP8A-40" vertex="1">
          <mxGeometry width="80" height="80" as="geometry" />
        </mxCell>
        <mxCell id="P8fl0U47V1fSoaWPIP8A-31" value="" style="line;strokeWidth=6;html=1;perimeter=backbonePerimeter;points=[];outlineConnect=0;" parent="P8fl0U47V1fSoaWPIP8A-40" vertex="1">
          <mxGeometry x="14" y="22.5" width="52" height="10" as="geometry" />
        </mxCell>
        <mxCell id="P8fl0U47V1fSoaWPIP8A-32" value="" style="line;strokeWidth=6;html=1;perimeter=backbonePerimeter;points=[];outlineConnect=0;" parent="P8fl0U47V1fSoaWPIP8A-40" vertex="1">
          <mxGeometry x="14" y="47.5" width="52" height="10" as="geometry" />
        </mxCell>
        <mxCell id="P8fl0U47V1fSoaWPIP8A-41" value="" style="group" parent="1" vertex="1" connectable="0">
          <mxGeometry x="590" y="360" width="160" height="180" as="geometry" />
        </mxCell>
        <mxCell id="P8fl0U47V1fSoaWPIP8A-9" value="" style="whiteSpace=wrap;html=1;aspect=fixed;fillColor=#CCCC00;strokeWidth=9;" parent="P8fl0U47V1fSoaWPIP8A-41" vertex="1">
          <mxGeometry width="80" height="80" as="geometry" />
        </mxCell>
        <mxCell id="P8fl0U47V1fSoaWPIP8A-33" value="" style="line;strokeWidth=6;html=1;perimeter=backbonePerimeter;points=[];outlineConnect=0;" parent="P8fl0U47V1fSoaWPIP8A-41" vertex="1">
          <mxGeometry x="14" y="22.5" width="52" height="10" as="geometry" />
        </mxCell>
        <mxCell id="P8fl0U47V1fSoaWPIP8A-34" value="" style="line;strokeWidth=6;html=1;perimeter=backbonePerimeter;points=[];outlineConnect=0;" parent="P8fl0U47V1fSoaWPIP8A-41" vertex="1">
          <mxGeometry x="14" y="47.5" width="52" height="10" as="geometry" />
        </mxCell>
      </root>
    </mxGraphModel>
  </diagram>
</mxfile>
